Version 11 13
{
	Skinned 0
	Bounds 3
	{
		0.00000024 -2.23809433 0.22939187 6.81106460
		0.00000024 -2.23809433 0.22939187 6.81106460
		0.00000024 -2.23809433 0.22939187 6.81106460
	}
	Mtl 0
	{
		Prim 0
		{
			Idx 198
			{
				0 1 2 2 1 3 1 4 3 5 6 7 6 8 7
				9 10 11 10 12 11 13 14 15 14 16 15 15 16 17
				18 19 20 19 21 20 22 23 24 23 25 24 26 27 28
				28 27 29 30 31 32 31 33 32 34 35 36 35 37 36
				36 37 38 39 40 41 40 42 41 43 44 45 44 46 45
				47 48 25 49 50 26 51 52 53 52 54 53 55 56 57
				56 58 57 59 60 61 60 62 61 63 64 65 66 67 68
				69 70 71 70 72 71 73 74 75 26 50 27 31 51 33
				51 53 33 35 55 37 55 57 37 11 5 9 5 7 9
				76 77 78 77 79 78 80 81 82 81 83 82 84 85 86
				85 87 86 88 89 90 90 89 91 92 93 94 94 93 95
				96 97 98 98 97 99 100 101 102 101 103 102 25 23 47
				45 21 43 21 19 43 41 16 39 16 14 39 104 105 106
				104 106 107
			}
			Verts 108
			{
				0.00000050 -5.69345093 -0.39500001 / 0.00000009 -0.18047030 -0.98358041 / 8 8 8 255 / -0.99999994 -0.00000024 -0.00000005 -1.00000000 / 0.63307935 0.01896250 / 0.00000000 1.00000000 / 0.00000000 1.00000000 / 0.00000000 1.00000000 / 0.00000000 1.00000000 / 0.00000000 1.00000000
				-0.79216522 -2.44849586 -0.99039423 / 0.00000004 -0.07989022 -0.99680364 / 0 0 0 255 / -1.00000000 -0.00000024 -0.00000002 -1.00000000 / 0.73121297 0.18449152 / 0.00000000 1.00000000 / 0.00000000 1.00000000 / 0.00000000 1.00000000 / 0.00000000 1.00000000 / 0.00000000 1.00000000
				0.79216546 -2.44849539 -0.99039423 / 0.00000004 -0.07988925 -0.99680376 / 0 0 0 255 / -1.00000000 -0.00000027 -0.00000002 -1.00000000 / 0.51934856 0.18449152 / 0.00000000 1.00000000 / 0.00000000 1.00000000 / 0.00000000 1.00000000 / 0.00000000 1.00000000 / 0.00000000 1.00000000
				1.09020841 3.94621944 -0.96634251 / 0.00000000 0.00376116 -0.99999297 / 1 1 1 255 / -1.00000000 -0.00000005 0.00000000 -1.00000000 / 0.51934856 0.47806221 / 0.00000000 1.00000000 / 0.00000000 1.00000000 / 0.00000000 1.00000000 / 0.00000000 1.00000000 / 0.00000000 1.00000000
				-1.09020925 3.94621944 -0.96634251 / 0.00000000 0.00376116 -0.99999297 / 1 1 1 255 / -1.00000000 0.00000000 0.00000000 -1.00000000 / 0.73121297 0.47806221 / 0.00000000 1.00000000 / 0.00000000 1.00000000 / 0.00000000 1.00000000 / 0.00000000 1.00000000 / 0.00000000 1.00000000
				1.48105860 4.02266121 -0.37254807 / 0.00000000 0.98389620 -0.17874074 / 18 18 18 255 / -0.99999994 0.00000001 0.00000004 -1.00000000 / 0.01635514 0.13354409 / 0.00000000 1.00000000 / 0.00000000 1.00000000 / 0.00000000 1.00000000 / 0.00000000 1.00000000 / 0.00000000 1.00000000
				1.09020841 3.94621944 -0.96634251 / 0.00000000 0.99181527 -0.12768130 / 1 1 1 255 / -1.00000000 0.00000002 0.00000015 -1.00000000 / 0.01635514 0.01683831 / 0.00000000 1.00000000 / 0.00000000 1.00000000 / 0.00000000 1.00000000 / 0.00000000 1.00000000 / 0.00000000 1.00000000
				-1.48105931 4.02266121 -0.37254819 / 0.00000001 0.98389608 -0.17874122 / 18 18 18 255 / -1.00000000 0.00000002 0.00000006 -1.00000000 / 0.48364484 0.13354397 / 0.00000000 1.00000000 / 0.00000000 1.00000000 / 0.00000000 1.00000000 / 0.00000000 1.00000000 / 0.00000000 1.00000000
				-1.09020925 3.94621944 -0.96634251 / 0.00000000 0.99181545 -0.12767959 / 1 1 1 255 / -1.00000000 0.00000000 0.00000000 -1.00000000 / 0.48364484 0.01683831 / 0.00000000 1.00000000 / 0.00000000 1.00000000 / 0.00000000 1.00000000 / 0.00000000 1.00000000 / 0.00000000 1.00000000
				-1.71928024 4.08765554 -0.05668638 / 0.00000001 0.97398424 -0.22661553 / 40 40 40 255 / -1.00000000 0.00000001 0.00000001 -1.00000000 / 0.48364484 0.25024974 / 0.00000000 1.00000000 / 0.00000000 1.00000000 / 0.00000000 1.00000000 / 0.00000000 1.00000000 / 0.00000000 1.00000000
				-1.92607224 4.17426968 0.29710478 / 0.00000000 0.97131592 -0.23779283 / 78 78 78 255 / -1.00000000 0.00000000 -0.00000002 -1.00000000 / 0.48364484 0.48366117 / 0.00000000 1.00000000 / 0.00000000 1.00000000 / 0.00000000 1.00000000 / 0.00000000 1.00000000 / 0.00000000 1.00000000
				1.71927965 4.08765554 -0.05668632 / 0.00000000 0.97398371 -0.22661811 / 40 40 40 255 / -0.99999994 0.00000000 -0.00000001 -1.00000000 / 0.01635514 0.25024974 / 0.00000000 1.00000000 / 0.00000000 1.00000000 / 0.00000000 1.00000000 / 0.00000000 1.00000000 / 0.00000000 1.00000000
				1.92607152 4.17426968 0.29710478 / 0.00000000 0.97131491 -0.23779696 / 78 78 78 255 / -1.00000000 0.00000000 0.00000000 -1.00000000 / 0.01635514 0.48366117 / 0.00000000 1.00000000 / 0.00000000 1.00000000 / 0.00000000 1.00000000 / 0.00000000 1.00000000 / 0.00000000 1.00000000
				-1.92607224 4.17426968 0.29710478 / -0.86608088 -0.02934935 -0.49904162 / 78 78 78 255 / -0.00000004 0.99827510 -0.05870992 1.00000000 / 0.48979762 0.48390490 / 0.00000000 1.00000000 / 0.00000000 1.00000000 / 0.00000000 1.00000000 / 0.00000000 1.00000000 / 0.00000000 1.00000000
				-1.71928024 4.08765554 -0.05668638 / -0.83708787 -0.03524429 -0.54593194 / 40 40 40 255 / -0.01145369 0.99883300 -0.04692052 1.00000000 / 0.48979762 0.24580967 / 0.00000000 1.00000000 / 0.00000000 1.00000000 / 0.00000000 1.00000000 / 0.00000000 1.00000000 / 0.00000000 1.00000000
				-1.92607188 1.25435174 0.46882927 / -0.83903205 -0.03975592 -0.54262757 / 92 92 92 255 / -0.02127230 0.99896127 -0.04029740 1.00000000 / 0.25170237 0.48390490 / 0.00000000 1.00000000 / 0.00000000 1.00000000 / 0.00000000 1.00000000 / 0.00000000 1.00000000 / 0.00000000 1.00000000
				-1.56037235 -2.44873071 0.18001799 / -0.81791937 -0.11341015 -0.56404442 / 48 48 48 255 / -0.07523462 0.99304420 -0.09056988 1.00000000 / 0.01360714 0.24580967 / 0.00000000 1.00000000 / 0.00000000 1.00000000 / 0.00000000 1.00000000 / 0.00000000 1.00000000 / 0.00000000 1.00000000
				-1.94533026 -2.44961572 0.79456514 / -0.84281284 -0.10383620 -0.52809519 / 129 129 129 255 / -0.04677434 0.99163157 -0.12032911 1.00000000 / 0.01360714 0.48390490 / 0.00000000 1.00000000 / 0.00000000 1.00000000 / 0.00000000 1.00000000 / 0.00000000 1.00000000 / 0.00000000 1.00000000
				-1.94533026 -2.44961572 0.79456514 / -0.84281284 -0.10383620 -0.52809519 / 129 129 129 255 / 0.10474139 -0.99409670 0.02830141 -1.00000000 / 0.01360714 0.48390490 / 0.00000000 1.00000000 / 0.00000000 1.00000000 / 0.00000000 1.00000000 / 0.00000000 1.00000000 / 0.00000000 1.00000000
				-1.56037235 -2.44873071 0.18001799 / -0.81791937 -0.11341015 -0.56404442 / 48 48 48 255 / 0.10299742 -0.99340475 0.05038359 -1.00000000 / 0.01360714 0.24580967 / 0.00000000 1.00000000 / 0.00000000 1.00000000 / 0.00000000 1.00000000 / 0.00000000 1.00000000 / 0.00000000 1.00000000
				-1.49298954 -5.32858086 0.96921068 / -0.72967762 -0.25484511 -0.63452709 / 148 148 148 255 / 0.21009125 -0.96662372 0.14662959 -1.00000000 / 0.48979762 0.48390490 / 0.00000000 1.00000000 / 0.00000000 1.00000000 / 0.00000000 1.00000000 / 0.00000000 1.00000000 / 0.00000000 1.00000000
				-1.04001629 -5.51101589 0.53760523 / -0.69372058 -0.28993767 -0.65930867 / 80 80 80 255 / 0.22857542 -0.95670074 0.18021314 -1.00000000 / 0.48979762 0.24580967 / 0.00000000 1.00000000 / 0.00000000 1.00000000 / 0.00000000 1.00000000 / 0.00000000 1.00000000 / 0.00000000 1.00000000
				-1.49298954 -5.32858086 0.96921068 / -0.72967762 -0.25484511 -0.63452709 / 148 148 148 255 / -0.33456206 0.94235301 0.00625413 1.00000000 / 0.48979762 0.48390490 / 0.00000000 1.00000000 / 0.00000000 1.00000000 / 0.00000000 1.00000000 / 0.00000000 1.00000000 / 0.00000000 1.00000000
				-1.04001629 -5.51101589 0.53760523 / -0.69372058 -0.28993767 -0.65930867 / 80 80 80 255 / -0.41053456 0.91131091 0.03120373 1.00000000 / 0.48979762 0.24580967 / 0.00000000 1.00000000 / 0.00000000 1.00000000 / 0.00000000 1.00000000 / 0.00000000 1.00000000 / 0.00000000 1.00000000
				0.00000059 -8.65045834 1.18916225 / 0.00000020 -0.48440519 -0.87484378 / 175 175 175 255 / -0.55729473 0.72639567 -0.40220886 1.00000000 / 0.01408285 0.48390490 / 0.00000000 1.00000000 / 0.00000000 1.00000000 / 0.00000000 1.00000000 / 0.00000000 1.00000000 / 0.00000000 1.00000000
				0.00000055 -7.40633583 0.52264667 / -0.00000004 -0.47167790 -0.88177091 / 73 73 73 255 / -0.60866892 0.69961858 -0.37424076 1.00000000 / 0.21423362 0.28355396 / 0.00000000 1.00000000 / 0.00000000 1.00000000 / 0.00000000 1.00000000 / 0.00000000 1.00000000 / 0.00000000 1.00000000
				0.00000055 -7.40633583 0.52264667 / -0.00000004 -0.47167790 -0.88177091 / 73 73 73 255 / 0.60866880 0.69961852 -0.37424076 -1.00000000 / 0.21423362 0.28355396 / 0.00000000 1.00000000 / 0.00000000 1.00000000 / 0.00000000 1.00000000 / 0.00000000 1.00000000 / 0.00000000 1.00000000
				1.04001725 -5.51101589 0.53760523 / 0.69528961 -0.27450982 -0.66424155 / 80 80 80 255 / 0.40075278 0.91525769 0.04123808 -1.00000000 / 0.48979762 0.24580967 / 0.00000000 1.00000000 / 0.00000000 1.00000000 / 0.00000000 1.00000000 / 0.00000000 1.00000000 / 0.00000000 1.00000000
				0.00000059 -8.65045834 1.18916225 / 0.00000020 -0.48440519 -0.87484378 / 175 175 175 255 / 0.55729485 0.72639567 -0.40220866 -1.00000000 / 0.01408285 0.48390490 / 0.00000000 1.00000000 / 0.00000000 1.00000000 / 0.00000000 1.00000000 / 0.00000000 1.00000000 / 0.00000000 1.00000000
				1.49299049 -5.32858086 0.96921068 / 0.71822286 -0.22811668 -0.65735739 / 148 148 148 255 / 0.32137445 0.94668210 0.02261250 -1.00000000 / 0.48979762 0.48390490 / 0.00000000 1.00000000 / 0.00000000 1.00000000 / 0.00000000 1.00000000 / 0.00000000 1.00000000 / 0.00000000 1.00000000
				1.49299049 -5.32858086 0.96921068 / 0.71822286 -0.22811668 -0.65735739 / 148 148 148 255 / -0.20891210 -0.97184151 0.10899369 1.00000000 / 0.48979762 0.48390490 / 0.00000000 1.00000000 / 0.00000000 1.00000000 / 0.00000000 1.00000000 / 0.00000000 1.00000000 / 0.00000000 1.00000000
				1.04001725 -5.51101589 0.53760523 / 0.69528961 -0.27450982 -0.66424155 / 80 80 80 255 / -0.22808708 -0.96069014 0.15827419 1.00000000 / 0.48979762 0.24580967 / 0.00000000 1.00000000 / 0.00000000 1.00000000 / 0.00000000 1.00000000 / 0.00000000 1.00000000 / 0.00000000 1.00000000
				1.94533074 -2.44961524 0.79456514 / 0.83433485 -0.12082846 -0.53785294 / 129 129 129 255 / -0.10096288 -0.99267280 0.06638668 1.00000000 / 0.01360714 0.48390490 / 0.00000000 1.00000000 / 0.00000000 1.00000000 / 0.00000000 1.00000000 / 0.00000000 1.00000000 / 0.00000000 1.00000000
				1.56037295 -2.44873023 0.18001805 / 0.81714278 -0.12870970 -0.56188208 / 48 48 48 255 / -0.10244257 -0.99166220 0.07817715 1.00000000 / 0.01360714 0.24580967 / 0.00000000 1.00000000 / 0.00000000 1.00000000 / 0.00000000 1.00000000 / 0.00000000 1.00000000 / 0.00000000 1.00000000
				1.94533074 -2.44961524 0.79456514 / 0.83433485 -0.12082846 -0.53785294 / 129 129 129 255 / 0.05971653 0.98975170 -0.12971313 -1.00000000 / 0.01360714 0.48390490 / 0.00000000 1.00000000 / 0.00000000 1.00000000 / 0.00000000 1.00000000 / 0.00000000 1.00000000 / 0.00000000 1.00000000
				1.56037295 -2.44873023 0.18001805 / 0.81714278 -0.12870970 -0.56188208 / 48 48 48 255 / 0.08128731 0.99074203 -0.10873237 -1.00000000 / 0.01360714 0.24580967 / 0.00000000 1.00000000 / 0.00000000 1.00000000 / 0.00000000 1.00000000 / 0.00000000 1.00000000 / 0.00000000 1.00000000
				1.92607164 1.25435197 0.46882927 / 0.83903211 -0.03975575 -0.54262745 / 92 92 92 255 / 0.02127211 0.99896121 -0.04029738 -1.00000000 / 0.25170237 0.48390490 / 0.00000000 1.00000000 / 0.00000000 1.00000000 / 0.00000000 1.00000000 / 0.00000000 1.00000000 / 0.00000000 1.00000000
				1.71927965 4.08765554 -0.05668632 / 0.83714509 -0.03507622 -0.54585499 / 40 40 40 255 / 0.01690423 0.99912423 -0.03827795 -1.00000000 / 0.48979762 0.24580967 / 0.00000000 1.00000000 / 0.00000000 1.00000000 / 0.00000000 1.00000000 / 0.00000000 1.00000000 / 0.00000000 1.00000000
				1.92607152 4.17426968 0.29710478 / 0.86608100 -0.02934916 -0.49904138 / 78 78 78 255 / -0.00000016 0.99827510 -0.05870990 -1.00000000 / 0.48979762 0.48390490 / 0.00000000 1.00000000 / 0.00000000 1.00000000 / 0.00000000 1.00000000 / 0.00000000 1.00000000 / 0.00000000 1.00000000
				-1.48105931 4.02266121 -0.37254819 / -0.81826067 -0.04115387 -0.57337242 / 18 18 18 255 / -0.03142751 0.99914497 -0.02686351 1.00000000 / 0.48979762 0.12676203 / 0.00000000 1.00000000 / 0.00000000 1.00000000 / 0.00000000 1.00000000 / 0.00000000 1.00000000 / 0.00000000 1.00000000
				-1.09020925 3.94621944 -0.96634251 / -0.83837283 -0.04095871 -0.54355627 / 1 1 1 255 / -0.03916202 0.99912202 -0.01488415 1.00000000 / 0.48979762 0.00771439 / 0.00000000 1.00000000 / 0.00000000 1.00000000 / 0.00000000 1.00000000 / 0.00000000 1.00000000 / 0.00000000 1.00000000
				-1.23172045 -2.44841146 -0.26622191 / -0.82096845 -0.12961154 -0.55606794 / 16 16 16 255 / -0.11737915 0.99140447 -0.05778588 1.00000000 / 0.01360714 0.12676203 / 0.00000000 1.00000000 / 0.00000000 1.00000000 / 0.00000000 1.00000000 / 0.00000000 1.00000000 / 0.00000000 1.00000000
				-0.79216522 -2.44849586 -0.99039423 / -0.83595693 -0.14025946 -0.53056884 / 0 0 0 255 / -0.13352379 0.98971897 -0.05126067 1.00000000 / 0.01360714 0.00771439 / 0.00000000 1.00000000 / 0.00000000 1.00000000 / 0.00000000 1.00000000 / 0.00000000 1.00000000 / 0.00000000 1.00000000
				-1.23172045 -2.44841146 -0.26622191 / -0.82096845 -0.12961154 -0.55606794 / 16 16 16 255 / 0.10202303 -0.99152082 0.08048452 -1.00000000 / 0.01360714 0.12676203 / 0.00000000 1.00000000 / 0.00000000 1.00000000 / 0.00000000 1.00000000 / 0.00000000 1.00000000 / 0.00000000 1.00000000
				-0.79216522 -2.44849586 -0.99039423 / -0.83595693 -0.14025946 -0.53056884 / 0 0 0 255 / 0.10615097 -0.98985648 0.09442524 -1.00000000 / 0.01360714 0.00771439 / 0.00000000 1.00000000 / 0.00000000 1.00000000 / 0.00000000 1.00000000 / 0.00000000 1.00000000 / 0.00000000 1.00000000
				-0.63960987 -5.60223341 0.19655253 / -0.66972077 -0.30736795 -0.67601705 / 43 43 43 255 / 0.24146330 -0.95098817 0.19317600 -1.00000000 / 0.48979762 0.12676203 / 0.00000000 1.00000000 / 0.00000000 1.00000000 / 0.00000000 1.00000000 / 0.00000000 1.00000000 / 0.00000000 1.00000000
				0.00000050 -5.69345093 -0.39500001 / 0.01189764 -0.41933191 -0.90775496 / 8 8 8 255 / 0.23778711 -0.88059044 0.40989992 -1.00000000 / 0.48979762 0.00771439 / 0.00000000 1.00000000 / 0.00000000 1.00000000 / 0.00000000 1.00000000 / 0.00000000 1.00000000 / 0.00000000 1.00000000
				-0.63960987 -5.60223341 0.19655253 / -0.66972077 -0.30736795 -0.67601705 / 43 43 43 255 / -0.52517891 0.83964181 0.13852361 1.00000000 / 0.48979762 0.12676203 / 0.00000000 1.00000000 / 0.00000000 1.00000000 / 0.00000000 1.00000000 / 0.00000000 1.00000000 / 0.00000000 1.00000000
				0.00000050 -5.69345093 -0.39500001 / 0.01189764 -0.41933191 -0.90775496 / 8 8 8 255 / -0.68583804 0.65720558 -0.31258109 1.00000000 / 0.48979762 0.00771439 / 0.00000000 1.00000000 / 0.00000000 1.00000000 / 0.00000000 1.00000000 / 0.00000000 1.00000000 / 0.00000000 1.00000000
				0.00000050 -5.69345093 -0.39500001 / 0.01189764 -0.41933191 -0.90775496 / 8 8 8 255 / 0.69291341 0.65797126 -0.29486397 -1.00000000 / 0.48979762 0.00771439 / 0.00000000 1.00000000 / 0.00000000 1.00000000 / 0.00000000 1.00000000 / 0.00000000 1.00000000 / 0.00000000 1.00000000
				0.63961083 -5.60223341 0.19655250 / 0.66856968 -0.28762290 -0.68577516 / 43 43 43 255 / 0.51582623 0.84362626 0.14905693 -1.00000000 / 0.48979762 0.12676203 / 0.00000000 1.00000000 / 0.00000000 1.00000000 / 0.00000000 1.00000000 / 0.00000000 1.00000000 / 0.00000000 1.00000000
				0.63961083 -5.60223341 0.19655250 / 0.66856968 -0.28762290 -0.68577516 / 43 43 43 255 / -0.22529699 -0.95717674 0.18180771 1.00000000 / 0.48979762 0.12676203 / 0.00000000 1.00000000 / 0.00000000 1.00000000 / 0.00000000 1.00000000 / 0.00000000 1.00000000 / 0.00000000 1.00000000
				0.00000050 -5.69345093 -0.39500001 / 0.01189764 -0.41933191 -0.90775496 / 8 8 8 255 / -0.19859394 -0.89072549 0.40886229 1.00000000 / 0.48979762 0.00771439 / 0.00000000 1.00000000 / 0.00000000 1.00000000 / 0.00000000 1.00000000 / 0.00000000 1.00000000 / 0.00000000 1.00000000
				1.23172081 -2.44841099 -0.26622185 / 0.81589341 -0.15071055 -0.55821520 / 16 16 16 255 / -0.11643978 -0.98848033 0.09668668 1.00000000 / 0.01360714 0.12676203 / 0.00000000 1.00000000 / 0.00000000 1.00000000 / 0.00000000 1.00000000 / 0.00000000 1.00000000 / 0.00000000 1.00000000
				0.79216546 -2.44849539 -0.99039423 / 0.84222043 -0.16723247 -0.51254076 / 0 0 0 255 / -0.12784725 -0.98550963 0.11147141 1.00000000 / 0.01360714 0.00771439 / 0.00000000 1.00000000 / 0.00000000 1.00000000 / 0.00000000 1.00000000 / 0.00000000 1.00000000 / 0.00000000 1.00000000
				1.23172081 -2.44841099 -0.26622185 / 0.81589341 -0.15071055 -0.55821520 / 16 16 16 255 / 0.12241976 0.98857188 -0.08797099 -1.00000000 / 0.01360714 0.12676203 / 0.00000000 1.00000000 / 0.00000000 1.00000000 / 0.00000000 1.00000000 / 0.00000000 1.00000000 / 0.00000000 1.00000000
				0.79216546 -2.44849539 -0.99039423 / 0.84222043 -0.16723247 -0.51254076 / 0 0 0 255 / 0.14678915 0.98588932 -0.08046945 -1.00000000 / 0.01360714 0.00771439 / 0.00000000 1.00000000 / 0.00000000 1.00000000 / 0.00000000 1.00000000 / 0.00000000 1.00000000 / 0.00000000 1.00000000
				1.48105860 4.02266121 -0.37254807 / 0.81887400 -0.03919106 -0.57263374 / 18 18 18 255 / 0.04207121 0.99908090 -0.00821470 -1.00000000 / 0.48979762 0.12676203 / 0.00000000 1.00000000 / 0.00000000 1.00000000 / 0.00000000 1.00000000 / 0.00000000 1.00000000 / 0.00000000 1.00000000
				1.09020841 3.94621944 -0.96634251 / 0.83689809 -0.03695193 -0.54611009 / 1 1 1 255 / 0.04655688 0.99890858 0.00375706 -1.00000000 / 0.48979762 0.00771439 / 0.00000000 1.00000000 / 0.00000000 1.00000000 / 0.00000000 1.00000000 / 0.00000000 1.00000000 / 0.00000000 1.00000000
				1.36737669 1.21599829 0.82099336 / -0.00000006 0.11200407 0.99370778 / 149 149 149 255 / -0.99999994 -0.00000009 -0.00000005 -1.00000000 / 0.01190476 0.48412704 / 0.00000000 1.00000000 / 0.00000000 1.00000000 / 0.00000000 1.00000000 / 0.00000000 1.00000000 / 0.00000000 1.00000000
				1.36737657 4.11604500 0.49411952 / -0.00000003 0.11200409 0.99370778 / 105 105 105 255 / -1.00000000 -0.00000004 -0.00000002 -1.00000000 / 0.01190476 0.00793654 / 0.00000000 1.00000000 / 0.00000000 1.00000000 / 0.00000000 1.00000000 / 0.00000000 1.00000000 / 0.00000000 1.00000000
				-1.36737704 1.21599805 0.82099336 / -0.00000003 0.11200409 0.99370778 / 149 149 149 255 / -1.00000000 -0.00000005 -0.00000003 -1.00000000 / 0.48809522 0.48412704 / 0.00000000 1.00000000 / 0.00000000 1.00000000 / 0.00000000 1.00000000 / 0.00000000 1.00000000 / 0.00000000 1.00000000
				-1.36737728 4.11604500 0.49411952 / 0.00000000 0.11200409 0.99370778 / 105 105 105 255 / -1.00000000 0.00000000 0.00000000 -1.00000000 / 0.48809522 0.00793654 / 0.00000000 1.00000000 / 0.00000000 1.00000000 / 0.00000000 1.00000000 / 0.00000000 1.00000000 / 0.00000000 1.00000000
				1.36737669 1.21599829 0.82099336 / 0.78027260 0.07233199 0.62124276 / 149 149 149 255 / -0.00522408 0.99400920 -0.10917223 1.00000000 / 0.48364484 0.48364484 / 0.00000000 1.00000000 / 0.00000000 1.00000000 / 0.00000000 1.00000000 / 0.00000000 1.00000000 / 0.00000000 1.00000000
				1.16515923 -1.99793661 1.44917798 / 0.78027260 0.07233199 0.62124276 / 255 255 255 255 / -0.00522408 0.99400914 -0.10917223 1.00000000 / 0.01635514 0.01635516 / 0.00000000 1.00000000 / 0.00000000 1.00000000 / 0.00000000 1.00000000 / 0.00000000 1.00000000 / 0.00000000 1.00000000
				1.38663578 -2.44849515 1.22346556 / 0.78027260 0.07233199 0.62124276 / 214 214 214 255 / -0.00522408 0.99400920 -0.10917224 1.00000000 / 0.01635514 0.48364484 / 0.00000000 1.00000000 / 0.00000000 1.00000000 / 0.00000000 1.00000000 / 0.00000000 1.00000000 / 0.00000000 1.00000000
				-1.36737704 1.21599805 0.82099336 / -0.78027314 0.07233185 0.62124223 / 149 149 149 255 / 0.00522394 0.99400914 -0.10917225 -1.00000000 / 0.48364484 0.48364484 / 0.00000000 1.00000000 / 0.00000000 1.00000000 / 0.00000000 1.00000000 / 0.00000000 1.00000000 / 0.00000000 1.00000000
				-1.38663554 -2.44849563 1.22346556 / -0.78027314 0.07233185 0.62124223 / 214 214 214 255 / 0.00522394 0.99400908 -0.10917223 -1.00000000 / 0.01635514 0.48364484 / 0.00000000 1.00000000 / 0.00000000 1.00000000 / 0.00000000 1.00000000 / 0.00000000 1.00000000 / 0.00000000 1.00000000
				-1.16515923 -1.99793661 1.44917798 / -0.78027314 0.07233185 0.62124223 / 255 255 255 255 / 0.00522394 0.99400908 -0.10917225 -1.00000000 / 0.01635514 0.01635516 / 0.00000000 1.00000000 / 0.00000000 1.00000000 / 0.00000000 1.00000000 / 0.00000000 1.00000000 / 0.00000000 1.00000000
				-1.16515923 -1.99793661 1.44917798 / 0.00000000 -0.44790080 0.89408332 / 255 255 255 255 / -1.00000000 0.00000000 0.00000000 -1.00000000 / 0.48148149 0.01899928 / 0.00000000 1.00000000 / 0.00000000 1.00000000 / 0.00000000 1.00000000 / 0.00000000 1.00000000 / 0.00000000 1.00000000
				-1.38663554 -2.44849563 1.22346556 / 0.00000001 -0.44790080 0.89408326 / 214 214 214 255 / -1.00000000 -0.00000003 0.00000000 -1.00000000 / 0.48148149 0.48149991 / 0.00000000 1.00000000 / 0.00000000 1.00000000 / 0.00000000 1.00000000 / 0.00000000 1.00000000 / 0.00000000 1.00000000
				1.16515923 -1.99793661 1.44917798 / 0.00000008 -0.44790104 0.89408314 / 255 255 255 255 / -1.00000000 -0.00000016 0.00000001 -1.00000000 / 0.01851852 0.01899928 / 0.00000000 1.00000000 / 0.00000000 1.00000000 / 0.00000000 1.00000000 / 0.00000000 1.00000000 / 0.00000000 1.00000000
				1.38663578 -2.44849515 1.22346556 / 0.00000009 -0.44790101 0.89408308 / 214 214 214 255 / -1.00000000 -0.00000018 0.00000001 -1.00000000 / 0.01851852 0.48149991 / 0.00000000 1.00000000 / 0.00000000 1.00000000 / 0.00000000 1.00000000 / 0.00000000 1.00000000 / 0.00000000 1.00000000
				-1.38663554 -2.44849563 1.22346556 / -0.00000011 -0.00553096 0.99998468 / 214 214 214 255 / -1.00000000 -0.00000017 -0.00000011 1.00000000 / 0.46931869 0.47953218 / 0.00000000 1.00000000 / 0.00000000 1.00000000 / 0.00000000 1.00000000 / 0.00000000 1.00000000 / 0.00000000 1.00000000
				0.00000059 -8.65045834 1.18916225 / -0.00000011 -0.00553096 0.99998468 / 175 175 175 255 / -0.99999994 -0.00000017 -0.00000011 1.00000000 / 0.25002044 0.04093570 / 0.00000000 1.00000000 / 0.00000000 1.00000000 / 0.00000000 1.00000000 / 0.00000000 1.00000000 / 0.00000000 1.00000000
				1.38663578 -2.44849515 1.22346556 / -0.00000011 -0.00553096 0.99998468 / 214 214 214 255 / -1.00000000 -0.00000017 -0.00000011 1.00000000 / 0.03116035 0.47953218 / 0.00000000 1.00000000 / 0.00000000 1.00000000 / 0.00000000 1.00000000 / 0.00000000 1.00000000 / 0.00000000 1.00000000
				1.92607152 4.17426968 0.29710478 / 0.32690230 0.05548439 0.94342804 / 78 78 78 255 / -0.00000005 0.99827504 -0.05871000 1.00000000 / 0.48271605 0.48271608 / 0.00000000 1.00000000 / 0.00000000 1.00000000 / 0.00000000 1.00000000 / 0.00000000 1.00000000 / 0.00000000 1.00000000
				1.36737657 4.11604500 0.49411952 / 0.35439673 0.06094340 0.93310714 / 105 105 105 255 / 0.00017108 0.99786973 -0.06523818 1.00000000 / 0.48271605 0.01975310 / 0.00000000 1.00000000 / 0.00000000 1.00000000 / 0.00000000 1.00000000 / 0.00000000 1.00000000 / 0.00000000 1.00000000
				1.92607164 1.25435197 0.46882927 / 0.51478332 0.08429552 0.85316610 / 92 92 92 255 / 0.00323194 0.99495661 -0.10025496 1.00000000 / 0.01975310 0.48271608 / 0.00000000 1.00000000 / 0.00000000 1.00000000 / 0.00000000 1.00000000 / 0.00000000 1.00000000 / 0.00000000 1.00000000
				1.36737669 1.21599829 0.82099336 / 0.53200239 0.08632974 0.84233046 / 149 149 149 255 / 0.00455297 0.99448299 -0.10479931 1.00000000 / 0.01975310 0.01975310 / 0.00000000 1.00000000 / 0.00000000 1.00000000 / 0.00000000 1.00000000 / 0.00000000 1.00000000 / 0.00000000 1.00000000
				1.92607164 1.25435197 0.46882927 / 0.51478332 0.08429552 0.85316610 / 92 92 92 255 / 0.00855871 -0.99561024 0.09320530 -1.00000000 / 0.01975310 0.48271608 / 0.00000000 1.00000000 / 0.00000000 1.00000000 / 0.00000000 1.00000000 / 0.00000000 1.00000000 / 0.00000000 1.00000000
				1.36737669 1.21599829 0.82099336 / 0.53200239 0.08632974 0.84233046 / 149 149 149 255 / 0.00910992 -0.99531502 0.09625531 -1.00000000 / 0.01975310 0.01975310 / 0.00000000 1.00000000 / 0.00000000 1.00000000 / 0.00000000 1.00000000 / 0.00000000 1.00000000 / 0.00000000 1.00000000
				1.94533074 -2.44961524 0.79456514 / 0.60425591 0.02522733 0.79639089 / 129 129 129 255 / -0.03299354 -0.99784923 0.05664256 -1.00000000 / 0.48271605 0.48271608 / 0.00000000 1.00000000 / 0.00000000 1.00000000 / 0.00000000 1.00000000 / 0.00000000 1.00000000 / 0.00000000 1.00000000
				1.38663578 -2.44849515 1.22346556 / 0.58630025 0.01406680 0.80997175 / 214 214 214 255 / -0.04033950 -0.99810183 0.04653390 -1.00000000 / 0.48271605 0.01975310 / 0.00000000 1.00000000 / 0.00000000 1.00000000 / 0.00000000 1.00000000 / 0.00000000 1.00000000 / 0.00000000 1.00000000
				1.94533074 -2.44961524 0.79456514 / 0.60425591 0.02522733 0.79639089 / 129 129 129 255 / 0.11240286 0.98680449 -0.11654396 1.00000000 / 0.48271605 0.48271608 / 0.00000000 1.00000000 / 0.00000000 1.00000000 / 0.00000000 1.00000000 / 0.00000000 1.00000000 / 0.00000000 1.00000000
				1.38663578 -2.44849515 1.22346556 / 0.58630025 0.01406680 0.80997175 / 214 214 214 255 / 0.12390043 0.98652846 -0.10681874 1.00000000 / 0.48271605 0.01975310 / 0.00000000 1.00000000 / 0.00000000 1.00000000 / 0.00000000 1.00000000 / 0.00000000 1.00000000 / 0.00000000 1.00000000
				1.49299049 -5.32858086 0.96921068 / 0.32906187 -0.07097655 0.94163716 / 148 148 148 255 / 0.21286933 0.97708040 -0.00074061 1.00000000 / 0.01975310 0.48271608 / 0.00000000 1.00000000 / 0.00000000 1.00000000 / 0.00000000 1.00000000 / 0.00000000 1.00000000 / 0.00000000 1.00000000
				0.00000059 -8.65045834 1.18916225 / 0.30193752 -0.07276472 0.95054680 / 175 175 175 255 / 0.21818985 0.97589147 0.00539771 1.00000000 / 0.01975310 0.01975310 / 0.00000000 1.00000000 / 0.00000000 1.00000000 / 0.00000000 1.00000000 / 0.00000000 1.00000000 / 0.00000000 1.00000000
				0.00000059 -8.65045834 1.18916225 / -0.30193743 -0.07276482 0.95054674 / 175 175 175 255 / -0.21819003 0.97589141 0.00539776 -1.00000000 / 0.01975310 0.01975310 / 0.00000000 1.00000000 / 0.00000000 1.00000000 / 0.00000000 1.00000000 / 0.00000000 1.00000000 / 0.00000000 1.00000000
				-1.38663554 -2.44849563 1.22346556 / -0.58630031 0.01406666 0.80997169 / 214 214 214 255 / -0.12390065 0.98652846 -0.10681873 -1.00000000 / 0.48271605 0.01975310 / 0.00000000 1.00000000 / 0.00000000 1.00000000 / 0.00000000 1.00000000 / 0.00000000 1.00000000 / 0.00000000 1.00000000
				-1.49298954 -5.32858086 0.96921068 / -0.32906181 -0.07097666 0.94163722 / 148 148 148 255 / -0.21286950 0.97708029 -0.00074055 -1.00000000 / 0.01975310 0.48271608 / 0.00000000 1.00000000 / 0.00000000 1.00000000 / 0.00000000 1.00000000 / 0.00000000 1.00000000 / 0.00000000 1.00000000
				-1.94533026 -2.44961572 0.79456514 / -0.60425597 0.02522721 0.79639083 / 129 129 129 255 / -0.11240306 0.98680449 -0.11654396 -1.00000000 / 0.48271605 0.48271608 / 0.00000000 1.00000000 / 0.00000000 1.00000000 / 0.00000000 1.00000000 / 0.00000000 1.00000000 / 0.00000000 1.00000000
				-1.38663554 -2.44849563 1.22346556 / -0.58630031 0.01406666 0.80997169 / 214 214 214 255 / 0.04033970 -0.99810183 0.04653388 1.00000000 / 0.48271605 0.01975310 / 0.00000000 1.00000000 / 0.00000000 1.00000000 / 0.00000000 1.00000000 / 0.00000000 1.00000000 / 0.00000000 1.00000000
				-1.36737704 1.21599805 0.82099336 / -0.53200233 0.08632962 0.84233057 / 149 149 149 255 / -0.00910973 -0.99531496 0.09625529 1.00000000 / 0.01975310 0.01975310 / 0.00000000 1.00000000 / 0.00000000 1.00000000 / 0.00000000 1.00000000 / 0.00000000 1.00000000 / 0.00000000 1.00000000
				-1.94533026 -2.44961572 0.79456514 / -0.60425597 0.02522721 0.79639083 / 129 129 129 255 / 0.03299372 -0.99784923 0.05664254 1.00000000 / 0.48271605 0.48271608 / 0.00000000 1.00000000 / 0.00000000 1.00000000 / 0.00000000 1.00000000 / 0.00000000 1.00000000 / 0.00000000 1.00000000
				-1.92607188 1.25435174 0.46882927 / -0.51478326 0.08429544 0.85316616 / 92 92 92 255 / -0.00855853 -0.99561024 0.09320530 1.00000000 / 0.01975310 0.48271608 / 0.00000000 1.00000000 / 0.00000000 1.00000000 / 0.00000000 1.00000000 / 0.00000000 1.00000000 / 0.00000000 1.00000000
				-1.36737704 1.21599805 0.82099336 / -0.53200233 0.08632962 0.84233057 / 149 149 149 255 / -0.00455312 0.99448293 -0.10479925 -1.00000000 / 0.01975310 0.01975310 / 0.00000000 1.00000000 / 0.00000000 1.00000000 / 0.00000000 1.00000000 / 0.00000000 1.00000000 / 0.00000000 1.00000000
				-1.36737728 4.11604500 0.49411952 / -0.35439664 0.06094333 0.93310714 / 105 105 105 255 / -0.00017123 0.99786973 -0.06523816 -1.00000000 / 0.48271605 0.01975310 / 0.00000000 1.00000000 / 0.00000000 1.00000000 / 0.00000000 1.00000000 / 0.00000000 1.00000000 / 0.00000000 1.00000000
				-1.92607188 1.25435174 0.46882927 / -0.51478326 0.08429544 0.85316616 / 92 92 92 255 / -0.00323208 0.99495655 -0.10025494 -1.00000000 / 0.01975310 0.48271608 / 0.00000000 1.00000000 / 0.00000000 1.00000000 / 0.00000000 1.00000000 / 0.00000000 1.00000000 / 0.00000000 1.00000000
				-1.92607224 4.17426968 0.29710478 / -0.32690227 0.05548433 0.94342804 / 78 78 78 255 / -0.00000011 0.99827510 -0.05871000 -1.00000000 / 0.48271605 0.48271608 / 0.00000000 1.00000000 / 0.00000000 1.00000000 / 0.00000000 1.00000000 / 0.00000000 1.00000000 / 0.00000000 1.00000000
				-1.92607224 4.17426968 0.29710478 / 0.00000000 0.95899653 0.28341794 / 78 78 78 255 / -1.00000000 0.00000000 0.00000000 1.00000000 / 0.48364484 0.48366117 / 0.00000000 1.00000000 / 0.00000000 1.00000000 / 0.00000000 1.00000000 / 0.00000000 1.00000000 / 0.00000000 1.00000000
				-1.36737728 4.11604500 0.49411952 / 0.00000000 0.95899647 0.28341797 / 105 105 105 255 / -1.00000000 0.00000000 0.00000000 1.00000000 / 0.48364484 0.01683843 / 0.00000000 1.00000000 / 0.00000000 1.00000000 / 0.00000000 1.00000000 / 0.00000000 1.00000000 / 0.00000000 1.00000000
				1.92607152 4.17426968 0.29710478 / 0.00000000 0.95899600 0.28341967 / 78 78 78 255 / -1.00000000 0.00000000 0.00000000 1.00000000 / 0.01635514 0.48366117 / 0.00000000 1.00000000 / 0.00000000 1.00000000 / 0.00000000 1.00000000 / 0.00000000 1.00000000 / 0.00000000 1.00000000
				1.36737657 4.11604500 0.49411952 / 0.00000000 0.95899588 0.28342003 / 105 105 105 255 / -1.00000000 0.00000000 0.00000000 1.00000000 / 0.01635514 0.01683843 / 0.00000000 1.00000000 / 0.00000000 1.00000000 / 0.00000000 1.00000000 / 0.00000000 1.00000000 / 0.00000000 1.00000000
				-1.16515923 -1.99793661 1.44917798 / -0.00000001 0.19182670 0.98142886 / 255 255 255 255 / -0.99999994 -0.00000004 0.00000000 1.00000000 / 0.48148149 0.01899928 / 0.00000000 1.00000000 / 0.00000000 1.00000000 / 0.00000000 1.00000000 / 0.00000000 1.00000000 / 0.00000000 1.00000000
				1.16515923 -1.99793661 1.44917798 / -0.00000001 0.19182670 0.98142886 / 255 255 255 255 / -1.00000000 0.00000000 -0.00000001 1.00000000 / 0.01851852 0.01899928 / 0.00000000 1.00000000 / 0.00000000 1.00000000 / 0.00000000 1.00000000 / 0.00000000 1.00000000 / 0.00000000 1.00000000
				1.36737669 1.21599829 0.82099336 / -0.00000001 0.19182670 0.98142886 / 149 149 149 255 / -1.00000000 -0.00000006 0.00000001 1.00000000 / 0.01190476 0.48412704 / 0.00000000 1.00000000 / 0.00000000 1.00000000 / 0.00000000 1.00000000 / 0.00000000 1.00000000 / 0.00000000 1.00000000
				-1.36737704 1.21599805 0.82099336 / -0.00000001 0.19182670 0.98142886 / 149 149 149 255 / -1.00000000 -0.00000009 0.00000001 1.00000000 / 0.48809522 0.48412704 / 0.00000000 1.00000000 / 0.00000000 1.00000000 / 0.00000000 1.00000000 / 0.00000000 1.00000000 / 0.00000000 1.00000000
			}
		}
	}
	Mtl 0
	{
		Prim 0
		{
			Idx 198
			{
				0 1 2 2 1 3 1 4 3 5 6 7 6 8 7
				9 10 11 10 12 11 13 14 15 14 16 15 15 16 17
				17 16 18 16 19 18 18 19 20 19 21 20 21 22 20
				20 22 23 23 22 24 22 25 24 24 25 26 25 27 26
				26 27 28 29 30 31 30 32 31 31 32 33 32 34 33
				33 34 21 34 35 21 35 34 36 34 37 36 36 37 38
				37 39 38 40 41 42 41 43 42 44 45 46 47 48 49
				50 51 52 51 53 52 54 55 56 57 58 59 59 58 60
				58 61 60 60 61 62 61 63 62 64 65 66 65 67 66
				68 69 70 69 71 70 70 71 72 71 73 72 72 73 74
				73 75 74 76 77 78 78 77 79 77 80 79 79 80 81
				80 82 81 81 82 83 84 85 86 85 87 86 88 89 90
				90 89 91 89 92 91 91 92 93 92 94 93 95 96 97
				95 97 98
			}
			Verts 99
			{
				0.00000050 -5.69345093 -0.39500001 / 0.00000009 -0.18047030 -0.98358041 / 255 255 255 255 / 1.00000000 0.00000000 0.00000000 -1.00000000 / 0.00000000 1.00000000 / 0.00000000 1.00000000 / 0.00000000 1.00000000 / 0.00000000 1.00000000 / 0.00000000 1.00000000 / 0.00000000 1.00000000
				-0.79216522 -2.44849586 -0.99039423 / 0.00000004 -0.07989022 -0.99680364 / 255 255 255 255 / 1.00000000 0.00000000 0.00000000 -1.00000000 / 0.00000000 1.00000000 / 0.00000000 1.00000000 / 0.00000000 1.00000000 / 0.00000000 1.00000000 / 0.00000000 1.00000000 / 0.00000000 1.00000000
				0.79216546 -2.44849539 -0.99039423 / 0.00000004 -0.07988925 -0.99680376 / 255 255 255 255 / 1.00000000 0.00000000 0.00000000 -1.00000000 / 0.00000000 1.00000000 / 0.00000000 1.00000000 / 0.00000000 1.00000000 / 0.00000000 1.00000000 / 0.00000000 1.00000000 / 0.00000000 1.00000000
				1.09020841 3.94621944 -0.96634251 / 0.00000000 0.00376116 -0.99999297 / 255 255 255 255 / 1.00000000 0.00000000 0.00000000 -1.00000000 / 0.00000000 1.00000000 / 0.00000000 1.00000000 / 0.00000000 1.00000000 / 0.00000000 1.00000000 / 0.00000000 1.00000000 / 0.00000000 1.00000000
				-1.09020925 3.94621944 -0.96634251 / 0.00000000 0.00376116 -0.99999297 / 255 255 255 255 / 1.00000000 0.00000000 0.00000000 -1.00000000 / 0.00000000 1.00000000 / 0.00000000 1.00000000 / 0.00000000 1.00000000 / 0.00000000 1.00000000 / 0.00000000 1.00000000 / 0.00000000 1.00000000
				1.48105860 4.02266121 -0.37254807 / 0.00000000 0.99181515 -0.12768149 / 255 255 255 255 / 1.00000000 0.00000000 0.00000000 -1.00000000 / 0.00000000 1.00000000 / 0.00000000 1.00000000 / 0.00000000 1.00000000 / 0.00000000 1.00000000 / 0.00000000 1.00000000 / 0.00000000 1.00000000
				1.09020841 3.94621944 -0.96634251 / 0.00000000 0.99181527 -0.12768130 / 255 255 255 255 / 1.00000000 0.00000000 0.00000000 -1.00000000 / 0.00000000 1.00000000 / 0.00000000 1.00000000 / 0.00000000 1.00000000 / 0.00000000 1.00000000 / 0.00000000 1.00000000 / 0.00000000 1.00000000
				-1.48105931 4.02266121 -0.37254819 / 0.00000000 0.99181545 -0.12768003 / 255 255 255 255 / 1.00000000 0.00000000 0.00000000 -1.00000000 / 0.00000000 1.00000000 / 0.00000000 1.00000000 / 0.00000000 1.00000000 / 0.00000000 1.00000000 / 0.00000000 1.00000000 / 0.00000000 1.00000000
				-1.09020925 3.94621944 -0.96634251 / 0.00000000 0.99181545 -0.12767959 / 255 255 255 255 / 1.00000000 0.00000000 0.00000000 -1.00000000 / 0.00000000 1.00000000 / 0.00000000 1.00000000 / 0.00000000 1.00000000 / 0.00000000 1.00000000 / 0.00000000 1.00000000 / 0.00000000 1.00000000
				-1.71928024 4.08765554 -0.05668638 / 0.00000000 0.97131598 -0.23779239 / 255 255 255 255 / 1.00000000 0.00000000 0.00000000 -1.00000000 / 0.00000000 1.00000000 / 0.00000000 1.00000000 / 0.00000000 1.00000000 / 0.00000000 1.00000000 / 0.00000000 1.00000000 / 0.00000000 1.00000000
				-1.92607224 4.17426968 0.29710478 / 0.00000000 0.97131592 -0.23779283 / 255 255 255 255 / 1.00000000 0.00000000 0.00000000 -1.00000000 / 0.00000000 1.00000000 / 0.00000000 1.00000000 / 0.00000000 1.00000000 / 0.00000000 1.00000000 / 0.00000000 1.00000000 / 0.00000000 1.00000000
				1.71927965 4.08765554 -0.05668632 / 0.00000000 0.97131491 -0.23779672 / 255 255 255 255 / 1.00000000 0.00000000 0.00000000 -1.00000000 / 0.00000000 1.00000000 / 0.00000000 1.00000000 / 0.00000000 1.00000000 / 0.00000000 1.00000000 / 0.00000000 1.00000000 / 0.00000000 1.00000000
				1.92607152 4.17426968 0.29710478 / 0.00000000 0.97131491 -0.23779696 / 255 255 255 255 / 1.00000000 0.00000000 0.00000000 -1.00000000 / 0.00000000 1.00000000 / 0.00000000 1.00000000 / 0.00000000 1.00000000 / 0.00000000 1.00000000 / 0.00000000 1.00000000 / 0.00000000 1.00000000
				-1.92607224 4.17426968 0.29710478 / -0.86608088 -0.02934935 -0.49904162 / 255 255 255 255 / 1.00000000 0.00000000 0.00000000 -1.00000000 / 0.00000000 1.00000000 / 0.00000000 1.00000000 / 0.00000000 1.00000000 / 0.00000000 1.00000000 / 0.00000000 1.00000000 / 0.00000000 1.00000000
				-1.71928024 4.08765554 -0.05668638 / -0.86330760 -0.03042693 -0.50375998 / 255 255 255 255 / 1.00000000 0.00000000 0.00000000 -1.00000000 / 0.00000000 1.00000000 / 0.00000000 1.00000000 / 0.00000000 1.00000000 / 0.00000000 1.00000000 / 0.00000000 1.00000000 / 0.00000000 1.00000000
				-1.92607188 1.25435174 0.46882927 / -0.83903205 -0.03975592 -0.54262757 / 255 255 255 255 / 1.00000000 0.00000000 0.00000000 -1.00000000 / 0.00000000 1.00000000 / 0.00000000 1.00000000 / 0.00000000 1.00000000 / 0.00000000 1.00000000 / 0.00000000 1.00000000 / 0.00000000 1.00000000
				-1.56037235 -2.44873071 0.18001799 / -0.83571023 -0.10487004 -0.53906465 / 255 255 255 255 / 1.00000000 0.00000000 0.00000000 -1.00000000 / 0.00000000 1.00000000 / 0.00000000 1.00000000 / 0.00000000 1.00000000 / 0.00000000 1.00000000 / 0.00000000 1.00000000 / 0.00000000 1.00000000
				-1.94533026 -2.44961572 0.79456514 / -0.84281284 -0.10383620 -0.52809519 / 255 255 255 255 / 1.00000000 0.00000000 0.00000000 -1.00000000 / 0.00000000 1.00000000 / 0.00000000 1.00000000 / 0.00000000 1.00000000 / 0.00000000 1.00000000 / 0.00000000 1.00000000 / 0.00000000 1.00000000
				-1.49298954 -5.32858086 0.96921068 / -0.72967762 -0.25484511 -0.63452709 / 255 255 255 255 / 1.00000000 0.00000000 0.00000000 -1.00000000 / 0.00000000 1.00000000 / 0.00000000 1.00000000 / 0.00000000 1.00000000 / 0.00000000 1.00000000 / 0.00000000 1.00000000 / 0.00000000 1.00000000
				-1.04001629 -5.51101589 0.53760523 / -0.71405816 -0.30327523 -0.63098735 / 255 255 255 255 / 1.00000000 0.00000000 0.00000000 -1.00000000 / 0.00000000 1.00000000 / 0.00000000 1.00000000 / 0.00000000 1.00000000 / 0.00000000 1.00000000 / 0.00000000 1.00000000 / 0.00000000 1.00000000
				0.00000059 -8.65045834 1.18916225 / 0.00000020 -0.48440519 -0.87484378 / 255 255 255 255 / 1.00000000 0.00000000 0.00000000 -1.00000000 / 0.00000000 1.00000000 / 0.00000000 1.00000000 / 0.00000000 1.00000000 / 0.00000000 1.00000000 / 0.00000000 1.00000000 / 0.00000000 1.00000000
				0.00000055 -7.40633583 0.52264667 / -0.00000016 -0.47223318 -0.88147366 / 255 255 255 255 / 1.00000000 0.00000000 0.00000000 -1.00000000 / 0.00000000 1.00000000 / 0.00000000 1.00000000 / 0.00000000 1.00000000 / 0.00000000 1.00000000 / 0.00000000 1.00000000 / 0.00000000 1.00000000
				1.04001725 -5.51101589 0.53760523 / 0.72241324 -0.29022288 -0.62760639 / 255 255 255 255 / 1.00000000 0.00000000 0.00000000 -1.00000000 / 0.00000000 1.00000000 / 0.00000000 1.00000000 / 0.00000000 1.00000000 / 0.00000000 1.00000000 / 0.00000000 1.00000000 / 0.00000000 1.00000000
				1.49299049 -5.32858086 0.96921068 / 0.71822286 -0.22811668 -0.65735739 / 255 255 255 255 / 1.00000000 0.00000000 0.00000000 -1.00000000 / 0.00000000 1.00000000 / 0.00000000 1.00000000 / 0.00000000 1.00000000 / 0.00000000 1.00000000 / 0.00000000 1.00000000 / 0.00000000 1.00000000
				1.94533074 -2.44961524 0.79456514 / 0.83433485 -0.12082846 -0.53785294 / 255 255 255 255 / 1.00000000 0.00000000 0.00000000 -1.00000000 / 0.00000000 1.00000000 / 0.00000000 1.00000000 / 0.00000000 1.00000000 / 0.00000000 1.00000000 / 0.00000000 1.00000000 / 0.00000000 1.00000000
				1.56037295 -2.44873023 0.18001805 / 0.84068316 -0.12157635 -0.52770358 / 255 255 255 255 / 1.00000000 0.00000000 0.00000000 -1.00000000 / 0.00000000 1.00000000 / 0.00000000 1.00000000 / 0.00000000 1.00000000 / 0.00000000 1.00000000 / 0.00000000 1.00000000 / 0.00000000 1.00000000
				1.92607164 1.25435197 0.46882927 / 0.83903211 -0.03975575 -0.54262745 / 255 255 255 255 / 1.00000000 0.00000000 0.00000000 -1.00000000 / 0.00000000 1.00000000 / 0.00000000 1.00000000 / 0.00000000 1.00000000 / 0.00000000 1.00000000 / 0.00000000 1.00000000 / 0.00000000 1.00000000
				1.71927965 4.08765554 -0.05668632 / 0.86330777 -0.03042674 -0.50375980 / 255 255 255 255 / 1.00000000 0.00000000 0.00000000 -1.00000000 / 0.00000000 1.00000000 / 0.00000000 1.00000000 / 0.00000000 1.00000000 / 0.00000000 1.00000000 / 0.00000000 1.00000000 / 0.00000000 1.00000000
				1.92607152 4.17426968 0.29710478 / 0.86608100 -0.02934916 -0.49904138 / 255 255 255 255 / 1.00000000 0.00000000 0.00000000 -1.00000000 / 0.00000000 1.00000000 / 0.00000000 1.00000000 / 0.00000000 1.00000000 / 0.00000000 1.00000000 / 0.00000000 1.00000000 / 0.00000000 1.00000000
				-1.48105931 4.02266121 -0.37254819 / -0.83700937 -0.04121639 -0.54563421 / 255 255 255 255 / 1.00000000 0.00000000 0.00000000 -1.00000000 / 0.00000000 1.00000000 / 0.00000000 1.00000000 / 0.00000000 1.00000000 / 0.00000000 1.00000000 / 0.00000000 1.00000000 / 0.00000000 1.00000000
				-1.09020925 3.94621944 -0.96634251 / -0.83837283 -0.04095871 -0.54355627 / 255 255 255 255 / 1.00000000 0.00000000 0.00000000 -1.00000000 / 0.00000000 1.00000000 / 0.00000000 1.00000000 / 0.00000000 1.00000000 / 0.00000000 1.00000000 / 0.00000000 1.00000000 / 0.00000000 1.00000000
				-1.23172045 -2.44841146 -0.26622191 / -0.84639412 -0.13546161 -0.51504087 / 255 255 255 255 / 1.00000000 0.00000000 0.00000000 -1.00000000 / 0.00000000 1.00000000 / 0.00000000 1.00000000 / 0.00000000 1.00000000 / 0.00000000 1.00000000 / 0.00000000 1.00000000 / 0.00000000 1.00000000
				-0.79216522 -2.44849586 -0.99039423 / -0.83595693 -0.14025946 -0.53056884 / 255 255 255 255 / 1.00000000 0.00000000 0.00000000 -1.00000000 / 0.00000000 1.00000000 / 0.00000000 1.00000000 / 0.00000000 1.00000000 / 0.00000000 1.00000000 / 0.00000000 1.00000000 / 0.00000000 1.00000000
				-0.63960987 -5.60223341 0.19655253 / -0.68269151 -0.31369975 -0.65994292 / 255 255 255 255 / 1.00000000 0.00000000 0.00000000 -1.00000000 / 0.00000000 1.00000000 / 0.00000000 1.00000000 / 0.00000000 1.00000000 / 0.00000000 1.00000000 / 0.00000000 1.00000000 / 0.00000000 1.00000000
				0.00000050 -5.69345093 -0.39500001 / 0.01189764 -0.41933191 -0.90775496 / 255 255 255 255 / 1.00000000 0.00000000 0.00000000 -1.00000000 / 0.00000000 1.00000000 / 0.00000000 1.00000000 / 0.00000000 1.00000000 / 0.00000000 1.00000000 / 0.00000000 1.00000000 / 0.00000000 1.00000000
				0.63961083 -5.60223341 0.19655250 / 0.67240822 -0.28509301 -0.68307328 / 255 255 255 255 / 1.00000000 0.00000000 0.00000000 -1.00000000 / 0.00000000 1.00000000 / 0.00000000 1.00000000 / 0.00000000 1.00000000 / 0.00000000 1.00000000 / 0.00000000 1.00000000 / 0.00000000 1.00000000
				1.23172081 -2.44841099 -0.26622185 / 0.83294851 -0.16399488 -0.52849078 / 255 255 255 255 / 1.00000000 0.00000000 0.00000000 -1.00000000 / 0.00000000 1.00000000 / 0.00000000 1.00000000 / 0.00000000 1.00000000 / 0.00000000 1.00000000 / 0.00000000 1.00000000 / 0.00000000 1.00000000
				0.79216546 -2.44849539 -0.99039423 / 0.84222043 -0.16723247 -0.51254076 / 255 255 255 255 / 1.00000000 0.00000000 0.00000000 -1.00000000 / 0.00000000 1.00000000 / 0.00000000 1.00000000 / 0.00000000 1.00000000 / 0.00000000 1.00000000 / 0.00000000 1.00000000 / 0.00000000 1.00000000
				1.48105860 4.02266121 -0.37254807 / 0.83847129 -0.03735293 -0.54366416 / 255 255 255 255 / 1.00000000 0.00000000 0.00000000 -1.00000000 / 0.00000000 1.00000000 / 0.00000000 1.00000000 / 0.00000000 1.00000000 / 0.00000000 1.00000000 / 0.00000000 1.00000000 / 0.00000000 1.00000000
				1.09020841 3.94621944 -0.96634251 / 0.83689809 -0.03695193 -0.54611009 / 255 255 255 255 / 1.00000000 0.00000000 0.00000000 -1.00000000 / 0.00000000 1.00000000 / 0.00000000 1.00000000 / 0.00000000 1.00000000 / 0.00000000 1.00000000 / 0.00000000 1.00000000 / 0.00000000 1.00000000
				1.36737669 1.21599829 0.82099336 / -0.00000006 0.11200407 0.99370778 / 255 255 255 255 / 1.00000000 0.00000000 0.00000000 -1.00000000 / 0.00000000 1.00000000 / 0.00000000 1.00000000 / 0.00000000 1.00000000 / 0.00000000 1.00000000 / 0.00000000 1.00000000 / 0.00000000 1.00000000
				1.36737657 4.11604500 0.49411952 / -0.00000003 0.11200409 0.99370778 / 255 255 255 255 / 1.00000000 0.00000000 0.00000000 -1.00000000 / 0.00000000 1.00000000 / 0.00000000 1.00000000 / 0.00000000 1.00000000 / 0.00000000 1.00000000 / 0.00000000 1.00000000 / 0.00000000 1.00000000
				-1.36737704 1.21599805 0.82099336 / -0.00000003 0.11200409 0.99370778 / 255 255 255 255 / 1.00000000 0.00000000 0.00000000 -1.00000000 / 0.00000000 1.00000000 / 0.00000000 1.00000000 / 0.00000000 1.00000000 / 0.00000000 1.00000000 / 0.00000000 1.00000000 / 0.00000000 1.00000000
				-1.36737728 4.11604500 0.49411952 / 0.00000000 0.11200409 0.99370778 / 255 255 255 255 / 1.00000000 0.00000000 0.00000000 -1.00000000 / 0.00000000 1.00000000 / 0.00000000 1.00000000 / 0.00000000 1.00000000 / 0.00000000 1.00000000 / 0.00000000 1.00000000 / 0.00000000 1.00000000
				1.36737669 1.21599829 0.82099336 / 0.78027260 0.07233199 0.62124276 / 255 255 255 255 / 1.00000000 0.00000000 0.00000000 -1.00000000 / 0.00000000 1.00000000 / 0.00000000 1.00000000 / 0.00000000 1.00000000 / 0.00000000 1.00000000 / 0.00000000 1.00000000 / 0.00000000 1.00000000
				1.16515923 -1.99793661 1.44917798 / 0.78027260 0.07233199 0.62124276 / 255 255 255 255 / 1.00000000 0.00000000 0.00000000 -1.00000000 / 0.00000000 1.00000000 / 0.00000000 1.00000000 / 0.00000000 1.00000000 / 0.00000000 1.00000000 / 0.00000000 1.00000000 / 0.00000000 1.00000000
				1.38663578 -2.44849515 1.22346556 / 0.78027260 0.07233199 0.62124276 / 255 255 255 255 / 1.00000000 0.00000000 0.00000000 -1.00000000 / 0.00000000 1.00000000 / 0.00000000 1.00000000 / 0.00000000 1.00000000 / 0.00000000 1.00000000 / 0.00000000 1.00000000 / 0.00000000 1.00000000
				-1.36737704 1.21599805 0.82099336 / -0.78027314 0.07233185 0.62124223 / 255 255 255 255 / 1.00000000 0.00000000 0.00000000 -1.00000000 / 0.00000000 1.00000000 / 0.00000000 1.00000000 / 0.00000000 1.00000000 / 0.00000000 1.00000000 / 0.00000000 1.00000000 / 0.00000000 1.00000000
				-1.38663554 -2.44849563 1.22346556 / -0.78027314 0.07233185 0.62124223 / 255 255 255 255 / 1.00000000 0.00000000 0.00000000 -1.00000000 / 0.00000000 1.00000000 / 0.00000000 1.00000000 / 0.00000000 1.00000000 / 0.00000000 1.00000000 / 0.00000000 1.00000000 / 0.00000000 1.00000000
				-1.16515923 -1.99793661 1.44917798 / -0.78027314 0.07233185 0.62124223 / 255 255 255 255 / 1.00000000 0.00000000 0.00000000 -1.00000000 / 0.00000000 1.00000000 / 0.00000000 1.00000000 / 0.00000000 1.00000000 / 0.00000000 1.00000000 / 0.00000000 1.00000000 / 0.00000000 1.00000000
				-1.16515923 -1.99793661 1.44917798 / 0.00000000 -0.44790080 0.89408332 / 255 255 255 255 / 1.00000000 0.00000000 0.00000000 -1.00000000 / 0.00000000 1.00000000 / 0.00000000 1.00000000 / 0.00000000 1.00000000 / 0.00000000 1.00000000 / 0.00000000 1.00000000 / 0.00000000 1.00000000
				-1.38663554 -2.44849563 1.22346556 / 0.00000001 -0.44790080 0.89408326 / 255 255 255 255 / 1.00000000 0.00000000 0.00000000 -1.00000000 / 0.00000000 1.00000000 / 0.00000000 1.00000000 / 0.00000000 1.00000000 / 0.00000000 1.00000000 / 0.00000000 1.00000000 / 0.00000000 1.00000000
				1.16515923 -1.99793661 1.44917798 / 0.00000008 -0.44790104 0.89408314 / 255 255 255 255 / 1.00000000 0.00000000 0.00000000 -1.00000000 / 0.00000000 1.00000000 / 0.00000000 1.00000000 / 0.00000000 1.00000000 / 0.00000000 1.00000000 / 0.00000000 1.00000000 / 0.00000000 1.00000000
				1.38663578 -2.44849515 1.22346556 / 0.00000009 -0.44790101 0.89408308 / 255 255 255 255 / 1.00000000 0.00000000 0.00000000 -1.00000000 / 0.00000000 1.00000000 / 0.00000000 1.00000000 / 0.00000000 1.00000000 / 0.00000000 1.00000000 / 0.00000000 1.00000000 / 0.00000000 1.00000000
				-1.38663554 -2.44849563 1.22346556 / -0.00000011 -0.00553096 0.99998468 / 255 255 255 255 / 1.00000000 0.00000000 0.00000000 -1.00000000 / 0.00000000 1.00000000 / 0.00000000 1.00000000 / 0.00000000 1.00000000 / 0.00000000 1.00000000 / 0.00000000 1.00000000 / 0.00000000 1.00000000
				0.00000059 -8.65045834 1.18916225 / -0.00000011 -0.00553096 0.99998468 / 255 255 255 255 / 1.00000000 0.00000000 0.00000000 -1.00000000 / 0.00000000 1.00000000 / 0.00000000 1.00000000 / 0.00000000 1.00000000 / 0.00000000 1.00000000 / 0.00000000 1.00000000 / 0.00000000 1.00000000
				1.38663578 -2.44849515 1.22346556 / -0.00000011 -0.00553096 0.99998468 / 255 255 255 255 / 1.00000000 0.00000000 0.00000000 -1.00000000 / 0.00000000 1.00000000 / 0.00000000 1.00000000 / 0.00000000 1.00000000 / 0.00000000 1.00000000 / 0.00000000 1.00000000 / 0.00000000 1.00000000
				0.00000055 -7.40633583 0.52264667 / 0.65205079 -0.35250121 -0.67124701 / 255 255 255 255 / 1.00000000 0.00000000 0.00000000 -1.00000000 / 0.00000000 1.00000000 / 0.00000000 1.00000000 / 0.00000000 1.00000000 / 0.00000000 1.00000000 / 0.00000000 1.00000000 / 0.00000000 1.00000000
				0.63961083 -5.60223341 0.19655250 / 0.66492033 -0.29000893 -0.68831366 / 255 255 255 255 / 1.00000000 0.00000000 0.00000000 -1.00000000 / 0.00000000 1.00000000 / 0.00000000 1.00000000 / 0.00000000 1.00000000 / 0.00000000 1.00000000 / 0.00000000 1.00000000 / 0.00000000 1.00000000
				1.04001725 -5.51101589 0.53760523 / 0.66002584 -0.25448468 -0.70682627 / 255 255 255 255 / 1.00000000 0.00000000 0.00000000 -1.00000000 / 0.00000000 1.00000000 / 0.00000000 1.00000000 / 0.00000000 1.00000000 / 0.00000000 1.00000000 / 0.00000000 1.00000000 / 0.00000000 1.00000000
				1.56037295 -2.44873023 0.18001805 / 0.79186964 -0.13568972 -0.59542489 / 255 255 255 255 / 1.00000000 0.00000000 0.00000000 -1.00000000 / 0.00000000 1.00000000 / 0.00000000 1.00000000 / 0.00000000 1.00000000 / 0.00000000 1.00000000 / 0.00000000 1.00000000 / 0.00000000 1.00000000
				1.23172081 -2.44841099 -0.26622185 / 0.79749280 -0.13704592 -0.58755726 / 255 255 255 255 / 1.00000000 0.00000000 0.00000000 -1.00000000 / 0.00000000 1.00000000 / 0.00000000 1.00000000 / 0.00000000 1.00000000 / 0.00000000 1.00000000 / 0.00000000 1.00000000 / 0.00000000 1.00000000
				1.71927965 4.08765554 -0.05668632 / 0.80190068 -0.04070892 -0.59606886 / 255 255 255 255 / 1.00000000 0.00000000 0.00000000 -1.00000000 / 0.00000000 1.00000000 / 0.00000000 1.00000000 / 0.00000000 1.00000000 / 0.00000000 1.00000000 / 0.00000000 1.00000000 / 0.00000000 1.00000000
				1.48105860 4.02266121 -0.37254807 / 0.80173582 -0.04068948 -0.59629178 / 255 255 255 255 / 1.00000000 0.00000000 0.00000000 -1.00000000 / 0.00000000 1.00000000 / 0.00000000 1.00000000 / 0.00000000 1.00000000 / 0.00000000 1.00000000 / 0.00000000 1.00000000 / 0.00000000 1.00000000
				1.71927965 4.08765554 -0.05668632 / 0.00000000 0.97947925 -0.20154490 / 255 255 255 255 / 1.00000000 0.00000000 0.00000000 -1.00000000 / 0.00000000 1.00000000 / 0.00000000 1.00000000 / 0.00000000 1.00000000 / 0.00000000 1.00000000 / 0.00000000 1.00000000 / 0.00000000 1.00000000
				1.48105860 4.02266121 -0.37254807 / 0.00000000 0.97947925 -0.20154497 / 255 255 255 255 / 1.00000000 0.00000000 0.00000000 -1.00000000 / 0.00000000 1.00000000 / 0.00000000 1.00000000 / 0.00000000 1.00000000 / 0.00000000 1.00000000 / 0.00000000 1.00000000 / 0.00000000 1.00000000
				-1.71928024 4.08765554 -0.05668638 / 0.00000001 0.97947896 -0.20154622 / 255 255 255 255 / 1.00000000 0.00000000 0.00000000 -1.00000000 / 0.00000000 1.00000000 / 0.00000000 1.00000000 / 0.00000000 1.00000000 / 0.00000000 1.00000000 / 0.00000000 1.00000000 / 0.00000000 1.00000000
				-1.48105931 4.02266121 -0.37254819 / 0.00000001 0.97947896 -0.20154639 / 255 255 255 255 / 1.00000000 0.00000000 0.00000000 -1.00000000 / 0.00000000 1.00000000 / 0.00000000 1.00000000 / 0.00000000 1.00000000 / 0.00000000 1.00000000 / 0.00000000 1.00000000 / 0.00000000 1.00000000
				1.92607152 4.17426968 0.29710478 / 0.32690230 0.05548439 0.94342804 / 255 255 255 255 / 1.00000000 0.00000000 0.00000000 -1.00000000 / 0.00000000 1.00000000 / 0.00000000 1.00000000 / 0.00000000 1.00000000 / 0.00000000 1.00000000 / 0.00000000 1.00000000 / 0.00000000 1.00000000
				1.36737657 4.11604500 0.49411952 / 0.35439673 0.06094340 0.93310714 / 255 255 255 255 / 1.00000000 0.00000000 0.00000000 -1.00000000 / 0.00000000 1.00000000 / 0.00000000 1.00000000 / 0.00000000 1.00000000 / 0.00000000 1.00000000 / 0.00000000 1.00000000 / 0.00000000 1.00000000
				1.92607164 1.25435197 0.46882927 / 0.51478332 0.08429552 0.85316610 / 255 255 255 255 / 1.00000000 0.00000000 0.00000000 -1.00000000 / 0.00000000 1.00000000 / 0.00000000 1.00000000 / 0.00000000 1.00000000 / 0.00000000 1.00000000 / 0.00000000 1.00000000 / 0.00000000 1.00000000
				1.36737669 1.21599829 0.82099336 / 0.53200239 0.08632974 0.84233046 / 255 255 255 255 / 1.00000000 0.00000000 0.00000000 -1.00000000 / 0.00000000 1.00000000 / 0.00000000 1.00000000 / 0.00000000 1.00000000 / 0.00000000 1.00000000 / 0.00000000 1.00000000 / 0.00000000 1.00000000
				1.94533074 -2.44961524 0.79456514 / 0.60425591 0.02522733 0.79639089 / 255 255 255 255 / 1.00000000 0.00000000 0.00000000 -1.00000000 / 0.00000000 1.00000000 / 0.00000000 1.00000000 / 0.00000000 1.00000000 / 0.00000000 1.00000000 / 0.00000000 1.00000000 / 0.00000000 1.00000000
				1.38663578 -2.44849515 1.22346556 / 0.58630025 0.01406680 0.80997175 / 255 255 255 255 / 1.00000000 0.00000000 0.00000000 -1.00000000 / 0.00000000 1.00000000 / 0.00000000 1.00000000 / 0.00000000 1.00000000 / 0.00000000 1.00000000 / 0.00000000 1.00000000 / 0.00000000 1.00000000
				1.49299049 -5.32858086 0.96921068 / 0.32906187 -0.07097655 0.94163716 / 255 255 255 255 / 1.00000000 0.00000000 0.00000000 -1.00000000 / 0.00000000 1.00000000 / 0.00000000 1.00000000 / 0.00000000 1.00000000 / 0.00000000 1.00000000 / 0.00000000 1.00000000 / 0.00000000 1.00000000
				0.00000059 -8.65045834 1.18916225 / 0.30193752 -0.07276472 0.95054680 / 255 255 255 255 / 1.00000000 0.00000000 0.00000000 -1.00000000 / 0.00000000 1.00000000 / 0.00000000 1.00000000 / 0.00000000 1.00000000 / 0.00000000 1.00000000 / 0.00000000 1.00000000 / 0.00000000 1.00000000
				0.00000059 -8.65045834 1.18916225 / -0.30193743 -0.07276482 0.95054674 / 255 255 255 255 / 1.00000000 0.00000000 0.00000000 -1.00000000 / 0.00000000 1.00000000 / 0.00000000 1.00000000 / 0.00000000 1.00000000 / 0.00000000 1.00000000 / 0.00000000 1.00000000 / 0.00000000 1.00000000
				-1.38663554 -2.44849563 1.22346556 / -0.58630031 0.01406666 0.80997169 / 255 255 255 255 / 1.00000000 0.00000000 0.00000000 -1.00000000 / 0.00000000 1.00000000 / 0.00000000 1.00000000 / 0.00000000 1.00000000 / 0.00000000 1.00000000 / 0.00000000 1.00000000 / 0.00000000 1.00000000
				-1.49298954 -5.32858086 0.96921068 / -0.32906181 -0.07097666 0.94163722 / 255 255 255 255 / 1.00000000 0.00000000 0.00000000 -1.00000000 / 0.00000000 1.00000000 / 0.00000000 1.00000000 / 0.00000000 1.00000000 / 0.00000000 1.00000000 / 0.00000000 1.00000000 / 0.00000000 1.00000000
				-1.94533026 -2.44961572 0.79456514 / -0.60425597 0.02522721 0.79639083 / 255 255 255 255 / 1.00000000 0.00000000 0.00000000 -1.00000000 / 0.00000000 1.00000000 / 0.00000000 1.00000000 / 0.00000000 1.00000000 / 0.00000000 1.00000000 / 0.00000000 1.00000000 / 0.00000000 1.00000000
				-1.36737704 1.21599805 0.82099336 / -0.53200233 0.08632962 0.84233057 / 255 255 255 255 / 1.00000000 0.00000000 0.00000000 -1.00000000 / 0.00000000 1.00000000 / 0.00000000 1.00000000 / 0.00000000 1.00000000 / 0.00000000 1.00000000 / 0.00000000 1.00000000 / 0.00000000 1.00000000
				-1.92607188 1.25435174 0.46882927 / -0.51478326 0.08429544 0.85316616 / 255 255 255 255 / 1.00000000 0.00000000 0.00000000 -1.00000000 / 0.00000000 1.00000000 / 0.00000000 1.00000000 / 0.00000000 1.00000000 / 0.00000000 1.00000000 / 0.00000000 1.00000000 / 0.00000000 1.00000000
				-1.36737728 4.11604500 0.49411952 / -0.35439664 0.06094333 0.93310714 / 255 255 255 255 / 1.00000000 0.00000000 0.00000000 -1.00000000 / 0.00000000 1.00000000 / 0.00000000 1.00000000 / 0.00000000 1.00000000 / 0.00000000 1.00000000 / 0.00000000 1.00000000 / 0.00000000 1.00000000
				-1.92607224 4.17426968 0.29710478 / -0.32690227 0.05548433 0.94342804 / 255 255 255 255 / 1.00000000 0.00000000 0.00000000 -1.00000000 / 0.00000000 1.00000000 / 0.00000000 1.00000000 / 0.00000000 1.00000000 / 0.00000000 1.00000000 / 0.00000000 1.00000000 / 0.00000000 1.00000000
				-1.92607224 4.17426968 0.29710478 / 0.00000000 0.95899653 0.28341794 / 255 255 255 255 / 1.00000000 0.00000000 0.00000000 -1.00000000 / 0.00000000 1.00000000 / 0.00000000 1.00000000 / 0.00000000 1.00000000 / 0.00000000 1.00000000 / 0.00000000 1.00000000 / 0.00000000 1.00000000
				-1.36737728 4.11604500 0.49411952 / 0.00000000 0.95899647 0.28341797 / 255 255 255 255 / 1.00000000 0.00000000 0.00000000 -1.00000000 / 0.00000000 1.00000000 / 0.00000000 1.00000000 / 0.00000000 1.00000000 / 0.00000000 1.00000000 / 0.00000000 1.00000000 / 0.00000000 1.00000000
				1.92607152 4.17426968 0.29710478 / 0.00000000 0.95899600 0.28341967 / 255 255 255 255 / 1.00000000 0.00000000 0.00000000 -1.00000000 / 0.00000000 1.00000000 / 0.00000000 1.00000000 / 0.00000000 1.00000000 / 0.00000000 1.00000000 / 0.00000000 1.00000000 / 0.00000000 1.00000000
				1.36737657 4.11604500 0.49411952 / 0.00000000 0.95899588 0.28342003 / 255 255 255 255 / 1.00000000 0.00000000 0.00000000 -1.00000000 / 0.00000000 1.00000000 / 0.00000000 1.00000000 / 0.00000000 1.00000000 / 0.00000000 1.00000000 / 0.00000000 1.00000000 / 0.00000000 1.00000000
				0.00000055 -7.40633583 0.52264667 / -0.65205002 -0.35250083 -0.67124820 / 255 255 255 255 / 1.00000000 0.00000000 0.00000000 -1.00000000 / 0.00000000 1.00000000 / 0.00000000 1.00000000 / 0.00000000 1.00000000 / 0.00000000 1.00000000 / 0.00000000 1.00000000 / 0.00000000 1.00000000
				-1.04001629 -5.51101589 0.53760523 / -0.66760749 -0.27312368 -0.69260639 / 255 255 255 255 / 1.00000000 0.00000000 0.00000000 -1.00000000 / 0.00000000 1.00000000 / 0.00000000 1.00000000 / 0.00000000 1.00000000 / 0.00000000 1.00000000 / 0.00000000 1.00000000 / 0.00000000 1.00000000
				-0.63960987 -5.60223341 0.19655253 / -0.65715092 -0.30124021 -0.69094652 / 255 255 255 255 / 1.00000000 0.00000000 0.00000000 -1.00000000 / 0.00000000 1.00000000 / 0.00000000 1.00000000 / 0.00000000 1.00000000 / 0.00000000 1.00000000 / 0.00000000 1.00000000 / 0.00000000 1.00000000
				-1.23172045 -2.44841146 -0.26622191 / -0.79319167 -0.12336367 -0.59634584 / 255 255 255 255 / 1.00000000 0.00000000 0.00000000 -1.00000000 / 0.00000000 1.00000000 / 0.00000000 1.00000000 / 0.00000000 1.00000000 / 0.00000000 1.00000000 / 0.00000000 1.00000000 / 0.00000000 1.00000000
				-1.56037235 -2.44873071 0.18001799 / -0.79908776 -0.12192836 -0.58872074 / 255 255 255 255 / 1.00000000 0.00000000 0.00000000 -1.00000000 / 0.00000000 1.00000000 / 0.00000000 1.00000000 / 0.00000000 1.00000000 / 0.00000000 1.00000000 / 0.00000000 1.00000000 / 0.00000000 1.00000000
				-1.48105931 4.02266121 -0.37254819 / -0.80189669 -0.04106630 -0.59604961 / 255 255 255 255 / 1.00000000 0.00000000 0.00000000 -1.00000000 / 0.00000000 1.00000000 / 0.00000000 1.00000000 / 0.00000000 1.00000000 / 0.00000000 1.00000000 / 0.00000000 1.00000000 / 0.00000000 1.00000000
				-1.71928024 4.08765554 -0.05668638 / -0.80176175 -0.04108334 -0.59622997 / 255 255 255 255 / 1.00000000 0.00000000 0.00000000 -1.00000000 / 0.00000000 1.00000000 / 0.00000000 1.00000000 / 0.00000000 1.00000000 / 0.00000000 1.00000000 / 0.00000000 1.00000000 / 0.00000000 1.00000000
				-1.16515923 -1.99793661 1.44917798 / -0.00000001 0.19182670 0.98142886 / 255 255 255 255 / 1.00000000 0.00000000 0.00000000 -1.00000000 / 0.00000000 1.00000000 / 0.00000000 1.00000000 / 0.00000000 1.00000000 / 0.00000000 1.00000000 / 0.00000000 1.00000000 / 0.00000000 1.00000000
				1.16515923 -1.99793661 1.44917798 / -0.00000001 0.19182670 0.98142886 / 255 255 255 255 / 1.00000000 0.00000000 0.00000000 -1.00000000 / 0.00000000 1.00000000 / 0.00000000 1.00000000 / 0.00000000 1.00000000 / 0.00000000 1.00000000 / 0.00000000 1.00000000 / 0.00000000 1.00000000
				1.36737669 1.21599829 0.82099336 / -0.00000001 0.19182670 0.98142886 / 255 255 255 255 / 1.00000000 0.00000000 0.00000000 -1.00000000 / 0.00000000 1.00000000 / 0.00000000 1.00000000 / 0.00000000 1.00000000 / 0.00000000 1.00000000 / 0.00000000 1.00000000 / 0.00000000 1.00000000
				-1.36737704 1.21599805 0.82099336 / -0.00000001 0.19182670 0.98142886 / 255 255 255 255 / 1.00000000 0.00000000 0.00000000 -1.00000000 / 0.00000000 1.00000000 / 0.00000000 1.00000000 / 0.00000000 1.00000000 / 0.00000000 1.00000000 / 0.00000000 1.00000000 / 0.00000000 1.00000000
			}
		}
	}
}